<svg width="41" height="41" viewBox="0 0 41 41" fill="none" xmlns="http://www.w3.org/2000/svg">
<circle cx="20.5" cy="20.5" r="20.5" fill="#F4F4F4"/>
<path d="M20.4999 6.56L22.1282 15.436L28.6085 9.2223L24.7628 17.3703L33.6199 16.1923L25.7692 20.5L33.6199 24.8077L24.7628 23.6297L28.6085 31.7777L22.1282 25.564L20.4999 34.44L18.8716 25.564L12.3913 31.7777L16.2369 23.6297L7.37988 24.8077L15.2306 20.5L7.37988 16.1923L16.2369 17.3703L12.3913 9.2223L18.8716 15.436L20.4999 6.56Z" fill="#639ED8"/>
<path d="M28.955 20.3201C28.955 25.0884 25.1297 28.9539 20.4109 28.9539C15.6921 28.9539 11.8668 25.0884 11.8668 20.3201C11.8668 15.5518 15.6921 11.6863 20.4109 11.6863C25.1297 11.6863 28.955 15.5518 28.955 20.3201Z" fill="#639ED8"/>
</svg>
