<svg width="90" height="38" viewBox="0 0 90 38" fill="none" xmlns="http://www.w3.org/2000/svg">
<path d="M44.1584 9.86327C48.028 16.5704 47.8068 25.2588 53.5213 31.1237C58.2426 35.9692 59.6444 18.2792 59.7805 16.3811C59.9971 13.3595 60.2748 10.0478 59.8839 7.0182C59.8573 6.81157 59.6176 6.24098 59.6253 6.44919C59.6505 7.12901 60.423 9.26039 60.4529 9.34598C63.091 16.8928 65.7192 25.2328 71.1607 31.2789" stroke="#639ED8" stroke-width="4" stroke-linecap="round"/>
<path d="M86.1078 3.34546C81.2405 2.00276 74.9198 4.53469 71.3651 7.8717C66.6577 12.2909 74.4972 13.3411 77.2881 13.8464C78.7176 14.1051 86.2484 14.5383 86.832 16.7949C88.1695 21.9668 81.1873 25.6674 77.7277 27.5544" stroke="#639ED8" stroke-width="4" stroke-linecap="round"/>
<path d="M2.00001 6.55805C2.00001 -2.91574 1.96708 26.2928 6.43713 34.6248C9.44234 40.2263 14.1532 26.4425 14.6985 24.8571C14.8695 24.36 16.1545 15.7571 16.8558 15.4355C17.3352 15.2157 17.7124 16.0771 18.0325 16.4989C25.0346 25.7242 11.8052 8.64056 22.1019 22.0875C24.2328 24.8703 31.5433 35.1279 36.4184 31.1381C38.2424 29.6453 38.4286 25.931 38.4286 24.0657C38.4286 18.7743 37.2665 13.3029 35.6584 8.28904C35.0599 6.42291 34.1916 4.73638 33.3295 2.99716" stroke="#639ED8" stroke-width="4" stroke-linecap="round"/>
</svg>
