<svg width="28" height="33" viewBox="0 0 28 33" fill="none" xmlns="http://www.w3.org/2000/svg">
<path d="M25.8738 32.6189C26.2157 33.0527 26.8444 33.1273 27.2782 32.7854C27.712 32.4436 27.7865 31.8148 27.4447 31.3811L25.8738 32.6189ZM22.974 11.9328C22.974 17.3726 18.326 21.8656 12.487 21.8656V23.8656C19.3362 23.8656 24.974 18.5692 24.974 11.9328H22.974ZM12.487 21.8656C6.64802 21.8656 2 17.3726 2 11.9328H0C0 18.5692 5.63779 23.8656 12.487 23.8656V21.8656ZM2 11.9328C2 6.4931 6.64802 2 12.487 2V0C5.63779 0 0 5.29649 0 11.9328H2ZM12.487 2C18.326 2 22.974 6.4931 22.974 11.9328H24.974C24.974 5.29649 19.3362 0 12.487 0V2ZM17.2213 21.6388L25.8738 32.6189L27.4447 31.3811L18.7922 20.4009L17.2213 21.6388Z" fill="white"/>
</svg>
